<?xml version="1.0" encoding="iso-8859-1"?>
<!-- Generator: Adobe Illustrator 19.0.0, SVG Export Plug-In . SVG Version: 6.00 Build 0)  -->
<svg xmlns="http://www.w3.org/2000/svg" xmlns:xlink="http://www.w3.org/1999/xlink" version="1.1" id="Capa_1" x="0px" y="0px" viewBox="0 0 512 512" style="enable-background:new 0 0 512 512;" xml:space="preserve" width="512px" height="512px">
<g>
	<g>
		<path d="M400,0H112C94.368,0,80,14.368,80,32v448c0,17.664,14.368,32,32,32h288c17.664,0,32-14.336,32-32V32    C432,14.368,417.664,0,400,0z M400,416H112V64h288V416z" fill="#FFFFFF"/>
	</g>
</g>
<g>
	<g>
		<path d="M224,128h-64c-8.832,0-16,7.168-16,16v64c0,8.832,7.168,16,16,16h64c8.832,0,16-7.168,16-16v-64    C240,135.168,232.832,128,224,128z" fill="#FFFFFF"/>
	</g>
</g>
<g>
	<g>
		<path d="M224,256h-64c-8.832,0-16,7.168-16,16v64c0,8.832,7.168,16,16,16h64c8.832,0,16-7.168,16-16v-64    C240,263.168,232.832,256,224,256z" fill="#FFFFFF"/>
	</g>
</g>
<g>
	<g>
		<path d="M352,128h-64c-8.832,0-16,7.168-16,16v64c0,8.832,7.168,16,16,16h64c8.832,0,16-7.168,16-16v-64    C368,135.168,360.832,128,352,128z" fill="#FFFFFF"/>
	</g>
</g>
<g>
</g>
<g>
</g>
<g>
</g>
<g>
</g>
<g>
</g>
<g>
</g>
<g>
</g>
<g>
</g>
<g>
</g>
<g>
</g>
<g>
</g>
<g>
</g>
<g>
</g>
<g>
</g>
<g>
</g>
</svg>
